<?xml version="1.0" encoding="UTF-8" standalone="no"?>
<!-- Created with Inkscape (http://www.inkscape.org/) -->

<svg
   xmlns:dc="http://purl.org/dc/elements/1.1/"
   xmlns:cc="http://creativecommons.org/ns#"
   xmlns:rdf="http://www.w3.org/1999/02/22-rdf-syntax-ns#"
   xmlns:svg="http://www.w3.org/2000/svg"
   xmlns="http://www.w3.org/2000/svg"
   xmlns:sodipodi="http://sodipodi.sourceforge.net/DTD/sodipodi-0.dtd"
   xmlns:inkscape="http://www.inkscape.org/namespaces/inkscape"
   width="133.28391"
   height="92.070648"
   viewBox="0 0 35.264701 24.360359"
   version="1.1"
   id="svg3397"
   inkscape:version="0.92.0 r15299"
   sodipodi:docname="pz cussons.svg">
  <defs
     id="defs3391">
    <clipPath
       id="clipPath3206"
       clipPathUnits="userSpaceOnUse">
      <path
         inkscape:connector-curvature="0"
         id="path3204"
         d="m 426.142,751.825 h 164.74 v 90.065 h -164.74 z" />
    </clipPath>
  </defs>
  <sodipodi:namedview
     id="base"
     pagecolor="#ffffff"
     bordercolor="#666666"
     borderopacity="1.0"
     inkscape:pageopacity="0.0"
     inkscape:pageshadow="2"
     inkscape:zoom="5.8526056"
     inkscape:cx="66.141945"
     inkscape:cy="45.535021"
     inkscape:document-units="mm"
     inkscape:current-layer="layer1"
     showgrid="false"
     fit-margin-top="0"
     fit-margin-left="0"
     fit-margin-right="0"
     fit-margin-bottom="0"
     units="px"
     inkscape:window-width="1280"
     inkscape:window-height="744"
     inkscape:window-x="-4"
     inkscape:window-y="-4"
     inkscape:window-maximized="1" />
  <metadata
     id="metadata3394">
    <rdf:RDF>
      <cc:Work
         rdf:about="">
        <dc:format>image/svg+xml</dc:format>
        <dc:type
           rdf:resource="http://purl.org/dc/dcmitype/StillImage" />
        <dc:title></dc:title>
      </cc:Work>
    </rdf:RDF>
  </metadata>
  <g
     inkscape:label="Layer 1"
     inkscape:groupmode="layer"
     id="layer1"
     transform="translate(-82.285658,-172.05055)">
    <g
       id="g3497"
       transform="translate(0.13229247,-0.13228919)">
      <path
         d="m 95.787865,195.38417 c 0.481189,-0.002 0.801158,-0.18344 0.860072,-0.54328 0.04551,-0.28081 -0.08396,-0.48789 -0.515761,-0.78916 l -0.458258,-0.33514 c -0.458964,-0.33479 -0.64382,-0.51364 -0.767292,-0.73766 -0.123825,-0.22401 -0.167217,-0.4766 -0.113947,-0.80292 0.161219,-0.98884 0.960967,-1.63336 2.041878,-1.6383 0.341841,-0.001 0.772583,0.0462 1.076325,0.1524 0.303389,0.10619 0.471311,0.25294 0.452613,0.56868 -0.01235,0.20214 -0.205669,0.49741 -0.413102,0.49812 -0.316442,0.002 -0.613481,-0.26388 -1.118306,-0.28681 -0.406047,-0.0183 -0.664633,0.14676 -0.758119,0.43956 -0.06526,0.20779 -0.0039,0.43639 0.219075,0.59831 l 0.934861,0.69251 c 0.55633,0.39017 0.790928,0.8255 0.686505,1.46649 -0.168627,1.03399 -1.030816,1.66688 -2.250369,1.67252 h -0.006 c -0.353484,0.002 -0.797984,-0.0476 -1.111603,-0.15698 -0.313267,-0.10937 -0.486481,-0.26141 -0.467078,-0.58703 0.01235,-0.20919 0.158397,-0.51364 0.426156,-0.5147 0.326672,-0.001 0.789869,0.29775 1.154994,0.29598 z"
         style="fill:#717073;fill-opacity:1;fill-rule:nonzero;stroke:none;stroke-width:0.35277778"
         id="path3210"
         inkscape:connector-curvature="0" />
      <path
         d="m 100.01809,195.38417 c 0.48154,-0.002 0.80116,-0.18344 0.85972,-0.54328 0.0459,-0.28081 -0.0833,-0.48789 -0.51506,-0.78916 l -0.45896,-0.33514 c -0.458258,-0.33479 -0.643467,-0.51364 -0.766939,-0.73766 -0.123825,-0.22401 -0.167217,-0.4766 -0.113947,-0.80292 0.161572,-0.98884 0.961319,-1.63336 2.041876,-1.6383 0.3422,-0.001 0.77223,0.0462 1.07633,0.1524 0.30339,0.10619 0.47131,0.25294 0.45261,0.56868 -0.0123,0.20214 -0.20567,0.49741 -0.41275,0.49812 -0.31679,0.002 -0.61383,-0.26388 -1.11866,-0.28681 -0.40605,-0.0183 -0.66463,0.14676 -0.75776,0.43956 -0.066,0.20779 -0.004,0.43639 0.21872,0.59831 l 0.93486,0.69251 c 0.55598,0.39017 0.79093,0.8255 0.6865,1.46649 -0.16827,1.03399 -1.03081,1.66688 -2.250365,1.67252 h -0.006 c -0.353484,0.002 -0.797984,-0.0476 -1.111603,-0.15698 -0.313267,-0.10937 -0.486481,-0.26141 -0.467431,-0.58703 0.01235,-0.20919 0.15875,-0.51364 0.426509,-0.5147 0.326672,-0.001 0.789869,0.29775 1.154994,0.29598 z"
         style="fill:#717073;fill-opacity:1;fill-rule:nonzero;stroke:none;stroke-width:0.35277778"
         id="path3214"
         inkscape:connector-curvature="0" />
      <path
         d="m 114.70903,195.38417 c 0.48154,-0.002 0.80116,-0.18344 0.86007,-0.54328 0.0455,-0.28081 -0.084,-0.48789 -0.51611,-0.78916 l -0.45826,-0.33514 c -0.45861,-0.33479 -0.64276,-0.51364 -0.76729,-0.73766 -0.12347,-0.22401 -0.16687,-0.4766 -0.1136,-0.80292 0.16122,-0.98884 0.96132,-1.63336 2.04153,-1.6383 0.34219,-0.001 0.77258,0.0462 1.07668,0.1524 0.30339,0.10619 0.47131,0.25294 0.45226,0.56868 -0.012,0.20214 -0.20532,0.49741 -0.41275,0.49812 -0.31644,0.002 -0.61384,-0.26388 -1.11831,-0.28681 -0.40605,-0.0183 -0.66463,0.14676 -0.75776,0.43956 -0.066,0.20779 -0.004,0.43639 0.21872,0.59831 l 0.93486,0.69251 c 0.55598,0.39017 0.79093,0.8255 0.6865,1.46649 -0.16862,1.03399 -1.03081,1.66688 -2.25036,1.67252 h -0.006 c -0.35349,0.002 -0.79799,-0.0476 -1.1116,-0.15698 -0.31327,-0.10937 -0.48649,-0.26141 -0.46744,-0.58703 0.0127,-0.20919 0.15875,-0.51364 0.42651,-0.5147 0.32668,-0.001 0.78987,0.29775 1.155,0.29598 z"
         style="fill:#717073;fill-opacity:1;fill-rule:nonzero;stroke:none;stroke-width:0.35277778"
         id="path3218"
         inkscape:connector-curvature="0" />
      <path
         d="m 93.655359,194.36976 c -0.207081,1.27141 -0.986719,2.03376 -2.429228,2.04011 l -0.199672,10e-4 c -1.357136,0.006 -1.904647,-0.74965 -1.697214,-2.02106 l 0.516114,-3.16689 c 0,0 0.115358,-0.57326 0.746831,-0.57608 0.711905,-0.004 0.615244,0.56938 0.615244,0.56938 l -0.618419,3.76026 c -0.04445,0.34466 0.05574,0.72319 0.624063,0.72037 0.568325,-0.002 0.894998,-0.26846 0.98037,-0.72778 l 0.619125,-3.76026 c 0,0 0.04586,-0.57256 0.794808,-0.57608 0.631472,-0.003 0.564797,0.56973 0.564797,0.56973 z"
         style="fill:#717073;fill-opacity:1;fill-rule:nonzero;stroke:none;stroke-width:0.35277778"
         id="path3222"
         inkscape:connector-curvature="0" />
      <path
         d="m 108.43964,192.59554 c 0.20708,-1.27176 0.98672,-2.03341 2.42923,-2.04011 l 0.20002,-0.001 c 1.35679,-0.006 1.9043,0.74965 1.69686,2.02141 l -0.51611,3.16654 c 0,0 -0.11536,0.57326 -0.74683,0.57644 -0.71155,0.003 -0.6156,-0.57009 -0.6156,-0.57009 l 0.61913,-3.76026 c 0.0437,-0.34431 -0.0561,-0.72284 -0.62442,-0.72002 -0.56832,0.002 -0.895,0.26811 -0.98072,0.72778 l -0.61877,3.76026 c 0,0 -0.0459,0.57256 -0.79517,0.57608 -0.63147,0.003 -0.56444,-0.56973 -0.56444,-0.56973 z"
         style="fill:#717073;fill-opacity:1;fill-rule:nonzero;stroke:none;stroke-width:0.35277778"
         id="path3226"
         inkscape:connector-curvature="0" />
      <path
         d="m 106.37981,192.01176 -0.47837,2.89595 c -0.0854,0.45932 -0.47801,0.72567 -1.04598,0.72814 -0.56833,0.003 -0.73413,-0.37571 -0.69004,-0.72038 l 0.47837,-2.89595 c 0.0854,-0.45932 0.47801,-0.72531 1.04599,-0.72778 0.56832,-0.003 0.73413,0.37536 0.69003,0.72002 m -0.43744,-1.43439 -0.33162,0.001 c -1.44215,0.007 -2.22179,0.7687 -2.42887,2.04046 l -0.27623,1.70956 c -0.20672,1.27177 0.34044,2.02742 1.69722,2.02142 l 0.33126,-0.002 c 1.44251,-0.007 2.22214,-0.76871 2.42922,-2.04012 l 0.27588,-1.70956 c 0.20708,-1.27176 -0.34008,-2.02741 -1.69686,-2.02141"
         style="fill:#717073;fill-opacity:1;fill-rule:nonzero;stroke:none;stroke-width:0.35277778"
         id="path3230"
         inkscape:connector-curvature="0" />
      <path
         d="m 84.973357,196.30457 c 1.779058,0.32949 3.440642,-0.68368 3.637492,-1.06186 0.160513,-0.30762 0.01129,-0.79093 -0.444853,-0.74965 -0.490361,0.0448 -1.40582,1.06503 -2.88537,0.79092 -1.479197,-0.2741 -1.931105,-1.81151 -1.382183,-3.34574 0.375003,-1.04846 1.411817,-2.16817 2.734733,-2.25848 0.721431,-0.049 1.339498,0.1404 1.808339,0.34149 0.483306,0.20672 0.761647,-0.0152 0.881592,-0.34467 0.262467,-0.72108 -1.621367,-1.04916 -2.404533,-1.04916 -1.803753,0 -3.63467,0.96167 -4.380089,3.04588 -0.745067,2.08386 0.183091,4.21393 2.434872,4.63127"
         style="fill:#717073;fill-opacity:1;fill-rule:nonzero;stroke:none;stroke-width:0.35277778"
         id="path3234"
         inkscape:connector-curvature="0" />
      <path
         d="m 105.96642,180.10364 c -0.0688,-0.18909 -0.24412,-0.30621 -0.45791,-0.30621 l -3.59833,7e-4 c -0.25294,0 -0.45932,0.20603 -0.45932,0.45932 0,0.2533 0.20567,0.45861 0.45862,0.45861 h 2.2165 c 0.11359,0 0.13935,0.0864 0.0882,0.16016 -0.0501,0.0737 -3.34221,4.4062 -3.34221,4.4062 l 0.002,-0.002 c -0.0723,0.0882 -0.12065,0.1905 -0.14076,0.29598 -0.0191,0.0977 -0.012,0.19509 0.0198,0.28187 0.0688,0.18909 0.24447,0.30621 0.45826,0.30621 l 3.62338,3.5e-4 c 0.25329,0 0.45931,-0.20531 0.45931,-0.45861 0,-0.25329 -0.20567,-0.45967 -0.45861,-0.45967 -3.5e-4,0 -2.11455,-3.5e-4 -2.22814,-3.5e-4 -0.11395,0 -0.14288,-0.10019 -0.0762,-0.19473 0.0663,-0.0946 3.31646,-4.37162 3.31646,-4.37162 0.0702,-0.0864 0.11924,-0.18874 0.13935,-0.29387 0.0183,-0.0977 0.0116,-0.19544 -0.0201,-0.28222 m 8.20949,-7.78863 -2.58092,15.8817 c -0.80469,-0.24694 -2.37173,-0.65863 -4.36386,-0.85442 -0.96908,-0.11078 -2.10009,-0.1898 -3.41101,-0.20567 -3.17994,-0.0395 -5.482519,0.55492 -7.768166,0.79586 l 0.624416,-3.1122 c 0.01305,-0.066 0.08537,-0.0885 0.146403,-0.061 0.238831,0.10724 0.533753,0.14922 0.789164,0.14922 0.995186,0 1.567039,-0.13335 2.147711,-0.54998 1.092202,-0.78422 2.526592,-4.68912 -1.528586,-4.68912 h -0.820914 c -0.963083,0 -1.210733,0.51576 -1.399822,1.39241 l -1.362781,6.9656 c -3.180291,0 -5.115983,-0.58878 -5.738283,-0.98354 l 2.517422,-14.72883 z M 97.718123,183.7884 c -0.493536,-0.004 -0.840669,-0.0656 -0.758472,-0.52669 0.04692,-0.26318 0.313972,-1.64606 0.417336,-2.1456 0.05927,-0.28645 0.249414,-0.47695 0.623711,-0.47695 0.433211,0 0.0074,-0.003 0.501297,-0.003 1.043517,0 1.210028,0.71085 1.030464,1.65488 -0.217664,1.14512 -0.820561,1.50495 -1.814336,1.49719"
         style="fill:#e31837;fill-opacity:1;fill-rule:nonzero;stroke:none;stroke-width:0.35277778"
         id="path3238"
         inkscape:connector-curvature="0" />
    </g>
  </g>
</svg>
